<svg width="449" height="83" viewBox="0 0 449 83" fill="none" xmlns="http://www.w3.org/2000/svg">
<g filter="url(#filter0_d_8_2)">
<path d="M3.599 29.954C3.599 29.128 3.32367 28.479 2.773 28.007C2.537 27.771 2.36 27.5743 2.242 27.417C2.124 27.2203 2.065 26.945 2.065 26.591C2.065 26.355 2.08467 26.178 2.124 26.06C2.32067 25.0767 2.773 24.2703 3.481 23.641C4.22833 22.9723 5.09367 22.638 6.077 22.638C7.17833 22.638 8.142 22.992 8.968 23.7H16.992C22.4987 23.7 26.727 24.939 29.677 27.417C32.627 29.8557 34.102 33.2777 34.102 37.683C34.102 42.0883 32.6663 45.53 29.795 48.008C26.9237 50.486 22.774 51.725 17.346 51.725H11.505V65H3.599V29.954ZM17.169 44.881C20.0403 44.881 22.243 44.291 23.777 43.111C25.311 41.8917 26.078 40.0823 26.078 37.683C26.078 35.323 25.311 33.553 23.777 32.373C22.243 31.1537 20.0403 30.544 17.169 30.544H11.505V44.881H17.169ZM50.2892 65.649C47.3392 65.649 44.7432 65.0393 42.5012 63.82C40.2985 62.5613 38.5875 60.811 37.3682 58.569C36.1882 56.2877 35.5982 53.672 35.5982 50.722C35.5982 47.772 36.1882 45.176 37.3682 42.934C38.5875 40.6527 40.2985 38.9023 42.5012 37.683C44.7432 36.4243 47.3392 35.795 50.2892 35.795C53.2392 35.795 55.8155 36.4243 58.0182 37.683C60.2602 38.9023 61.9712 40.6527 63.1512 42.934C64.3705 45.176 64.9802 47.772 64.9802 50.722C64.9802 53.672 64.3705 56.2877 63.1512 58.569C61.9712 60.811 60.2602 62.5613 58.0182 63.82C55.8155 65.0393 53.2392 65.649 50.2892 65.649ZM50.2892 59.336C52.5312 59.336 54.2225 58.5887 55.3632 57.094C56.5039 55.56 57.0742 53.436 57.0742 50.722C57.0742 48.008 56.5039 45.9037 55.3632 44.409C54.2225 42.875 52.5312 42.108 50.2892 42.108C48.0472 42.108 46.3559 42.875 45.2152 44.409C44.0745 45.9037 43.5042 48.008 43.5042 50.722C43.5042 53.436 44.0745 55.56 45.2152 57.094C46.3559 58.5887 48.0472 59.336 50.2892 59.336ZM105.18 65.59C104.512 64.41 104.02 63.1907 103.705 61.932C103.43 60.634 103.292 59.1787 103.292 57.566V47.949C103.292 45.943 102.958 44.468 102.289 43.524C101.621 42.58 100.618 42.108 99.2804 42.108C96.1731 42.108 94.6194 44.055 94.6194 47.949V65H86.9494V47.89C86.9494 45.8053 86.6347 44.3303 86.0054 43.465C85.4154 42.5603 84.4517 42.108 83.1144 42.108C81.4231 42.108 80.1841 42.7177 79.3974 43.937C78.6107 45.117 78.2174 46.9067 78.2174 49.306V65H70.4294V44.409C70.4294 43.229 70.3311 42.2063 70.1344 41.341C69.9771 40.4757 69.6427 39.512 69.1314 38.45L75.6214 35.795C75.9754 36.4243 76.2901 37.1717 76.5654 38.037C76.8801 38.9023 77.0571 39.6497 77.0964 40.279C77.9224 38.8237 79.0237 37.7223 80.4004 36.975C81.7771 36.1883 83.2521 35.795 84.8254 35.795C87.9327 35.795 90.2337 37.2503 91.7284 40.161C92.9871 38.627 94.3441 37.5257 95.7994 36.857C97.2547 36.149 98.9854 35.795 100.991 35.795C104.217 35.795 106.695 36.739 108.425 38.627C110.195 40.515 111.08 42.993 111.08 46.061V57.389C111.08 59.5523 111.474 61.4207 112.26 62.994L105.18 65.59ZM131.069 65.649C128.119 65.649 125.523 65.0393 123.281 63.82C121.078 62.5613 119.367 60.811 118.148 58.569C116.968 56.2877 116.378 53.672 116.378 50.722C116.378 47.772 116.968 45.176 118.148 42.934C119.367 40.6527 121.078 38.9023 123.281 37.683C125.523 36.4243 128.119 35.795 131.069 35.795C134.019 35.795 136.595 36.4243 138.798 37.683C141.04 38.9023 142.751 40.6527 143.931 42.934C145.15 45.176 145.76 47.772 145.76 50.722C145.76 53.672 145.15 56.2877 143.931 58.569C142.751 60.811 141.04 62.5613 138.798 63.82C136.595 65.0393 134.019 65.649 131.069 65.649ZM131.069 59.336C133.311 59.336 135.002 58.5887 136.143 57.094C137.283 55.56 137.854 53.436 137.854 50.722C137.854 48.008 137.283 45.9037 136.143 44.409C135.002 42.875 133.311 42.108 131.069 42.108C128.827 42.108 127.135 42.875 125.995 44.409C124.854 45.9037 124.284 48.008 124.284 50.722C124.284 53.436 124.854 55.56 125.995 57.094C127.135 58.5887 128.827 59.336 131.069 59.336ZM174.278 65.649C173.137 64.3903 172.468 62.8957 172.272 61.165C169.99 64.115 166.942 65.59 163.127 65.59C160.609 65.59 158.348 65.0197 156.342 63.879C154.336 62.7383 152.762 61.0863 151.622 58.923C150.481 56.7597 149.911 54.1833 149.911 51.194C149.911 48.008 150.481 45.2547 151.622 42.934C152.762 40.6133 154.355 38.8433 156.401 37.624C158.446 36.4047 160.826 35.795 163.54 35.795C165.231 35.795 166.686 36.1097 167.906 36.739C169.164 37.329 170.305 38.155 171.328 39.217V21.694H179.116V56.976C179.116 58.3527 179.234 59.513 179.47 60.457C179.706 61.3617 180.079 62.2663 180.591 63.171L174.278 65.649ZM164.366 59.395C166.686 59.395 168.437 58.6673 169.617 57.212C170.836 55.7173 171.446 53.731 171.446 51.253V50.191C171.446 47.8703 170.856 45.9233 169.676 44.35C168.535 42.7767 166.844 41.99 164.602 41.99C162.36 41.99 160.649 42.7767 159.469 44.35C158.289 45.9233 157.699 48.2047 157.699 51.194C157.699 53.8687 158.269 55.914 159.41 57.33C160.55 58.7067 162.202 59.395 164.366 59.395ZM199.402 65.649C196.452 65.649 193.856 65.0393 191.614 63.82C189.412 62.5613 187.701 60.811 186.481 58.569C185.301 56.2877 184.711 53.672 184.711 50.722C184.711 47.772 185.301 45.176 186.481 42.934C187.701 40.6527 189.412 38.9023 191.614 37.683C193.856 36.4243 196.452 35.795 199.402 35.795C202.352 35.795 204.929 36.4243 207.131 37.683C209.373 38.9023 211.084 40.6527 212.264 42.934C213.484 45.176 214.093 47.772 214.093 50.722C214.093 53.672 213.484 56.2877 212.264 58.569C211.084 60.811 209.373 62.5613 207.131 63.82C204.929 65.0393 202.352 65.649 199.402 65.649ZM199.402 59.336C201.644 59.336 203.336 58.5887 204.476 57.094C205.617 55.56 206.187 53.436 206.187 50.722C206.187 48.008 205.617 45.9037 204.476 44.409C203.336 42.875 201.644 42.108 199.402 42.108C197.16 42.108 195.469 42.875 194.328 44.409C193.188 45.9037 192.617 48.008 192.617 50.722C192.617 53.436 193.188 55.56 194.328 57.094C195.469 58.5887 197.16 59.336 199.402 59.336ZM219.543 44.409C219.543 43.229 219.444 42.2063 219.248 41.341C219.09 40.4757 218.756 39.512 218.245 38.45L225.148 35.795C225.502 36.4243 225.816 37.1717 226.092 38.037C226.406 38.9023 226.583 39.6497 226.623 40.279C227.685 38.7843 228.786 37.6633 229.927 36.916C231.107 36.1687 232.444 35.795 233.939 35.795C235.119 35.795 236.141 35.9523 237.007 36.267C237.911 36.5817 238.855 37.1127 239.839 37.86L236.948 43.229C236.279 42.8357 235.669 42.5603 235.119 42.403C234.568 42.2063 233.958 42.108 233.29 42.108C231.244 42.108 229.73 42.7373 228.747 43.996C227.803 45.2547 227.331 47.1623 227.331 49.719V65H219.543V44.409ZM254.83 65.649C251.88 65.649 249.284 65.0393 247.042 63.82C244.84 62.5613 243.129 60.811 241.909 58.569C240.729 56.2877 240.139 53.672 240.139 50.722C240.139 47.772 240.729 45.176 241.909 42.934C243.129 40.6527 244.84 38.9023 247.042 37.683C249.284 36.4243 251.88 35.795 254.83 35.795C257.78 35.795 260.357 36.4243 262.559 37.683C264.801 38.9023 266.512 40.6527 267.692 42.934C268.912 45.176 269.521 47.772 269.521 50.722C269.521 53.672 268.912 56.2877 267.692 58.569C266.512 60.811 264.801 62.5613 262.559 63.82C260.357 65.0393 257.78 65.649 254.83 65.649ZM254.83 59.336C257.072 59.336 258.764 58.5887 259.904 57.094C261.045 55.56 261.615 53.436 261.615 50.722C261.615 48.008 261.045 45.9037 259.904 44.409C258.764 42.875 257.072 42.108 254.83 42.108C252.588 42.108 250.897 42.875 249.756 44.409C248.616 45.9037 248.045 48.008 248.045 50.722C248.045 53.436 248.616 55.56 249.756 57.094C250.897 58.5887 252.588 59.336 254.83 59.336ZM293.791 65.59C287.419 65.59 282.463 63.7217 278.923 59.985C275.423 56.2483 273.672 51.017 273.672 44.291C273.672 37.6043 275.383 32.4123 278.805 28.715C282.227 24.9783 287.065 23.11 293.319 23.11C296.151 23.11 298.747 23.6017 301.107 24.585C303.507 25.5683 305.414 26.9253 306.83 28.656L303.762 33.966C302.346 32.4713 300.852 31.37 299.278 30.662C297.744 29.9147 295.758 29.541 293.319 29.541C289.583 29.541 286.711 30.839 284.705 33.435C282.699 35.9917 281.696 39.6103 281.696 44.291C281.696 48.9717 282.758 52.6297 284.882 55.265C287.006 57.861 290.015 59.159 293.909 59.159C295.955 59.159 297.744 58.8247 299.278 58.156C300.812 57.4873 302.228 56.4057 303.526 54.911L308.128 59.277C306.555 61.2043 304.47 62.7383 301.874 63.879C299.318 65.0197 296.623 65.59 293.791 65.59ZM312.866 21.694H320.654V65H312.866V21.694ZM340.046 65.649C337.096 65.649 334.5 65.0393 332.258 63.82C330.055 62.5613 328.344 60.811 327.125 58.569C325.945 56.2877 325.355 53.672 325.355 50.722C325.355 47.772 325.945 45.176 327.125 42.934C328.344 40.6527 330.055 38.9023 332.258 37.683C334.5 36.4243 337.096 35.795 340.046 35.795C342.996 35.795 345.572 36.4243 347.775 37.683C350.017 38.9023 351.728 40.6527 352.908 42.934C354.127 45.176 354.737 47.772 354.737 50.722C354.737 53.672 354.127 56.2877 352.908 58.569C351.728 60.811 350.017 62.5613 347.775 63.82C345.572 65.0393 342.996 65.649 340.046 65.649ZM340.046 59.336C342.288 59.336 343.979 58.5887 345.12 57.094C346.261 55.56 346.831 53.436 346.831 50.722C346.831 48.008 346.261 45.9037 345.12 44.409C343.979 42.875 342.288 42.108 340.046 42.108C337.804 42.108 336.113 42.875 334.972 44.409C333.831 45.9037 333.261 48.008 333.261 50.722C333.261 53.436 333.831 55.56 334.972 57.094C336.113 58.5887 337.804 59.336 340.046 59.336ZM373.202 65.59C368.246 65.59 364.372 64.2723 361.579 61.637C358.787 59.0017 357.39 55.3633 357.39 50.722C357.39 46.0413 358.767 42.3833 361.52 39.748C364.274 37.1127 368.069 35.795 372.907 35.795C375.149 35.795 377.234 36.1687 379.161 36.916C381.089 37.624 382.642 38.568 383.822 39.748L381.167 44.881C378.886 43.0323 376.251 42.108 373.261 42.108C370.783 42.108 368.836 42.816 367.42 44.232C366.004 45.648 365.296 47.8113 365.296 50.722C365.296 53.5933 366.004 55.737 367.42 57.153C368.876 58.569 370.882 59.277 373.438 59.277C374.894 59.277 376.192 59.0607 377.332 58.628C378.512 58.156 379.633 57.4087 380.695 56.386L384.766 60.634C383.468 62.168 381.797 63.3873 379.751 64.292C377.706 65.1573 375.523 65.59 373.202 65.59ZM389.497 21.694H397.285V44.704L405.25 36.385H414.808L401.12 49.955L416.165 65H406.135L397.285 55.737V65H389.497V21.694ZM430.785 65.59C427.992 65.59 425.357 65.0983 422.879 64.115C420.44 63.0923 418.296 61.637 416.448 59.749L420.814 55.088C422.151 56.504 423.665 57.5857 425.357 58.333C427.048 59.0803 428.857 59.454 430.785 59.454C432.004 59.454 432.928 59.277 433.558 58.923C434.187 58.5297 434.502 57.9987 434.502 57.33C434.502 56.8187 434.364 56.386 434.089 56.032C433.853 55.678 433.302 55.3043 432.437 54.911C431.571 54.5177 430.254 54.0457 428.484 53.495C424.59 52.2757 421.836 50.958 420.224 49.542C418.611 48.0867 417.805 46.1987 417.805 43.878C417.805 41.3213 418.827 39.335 420.873 37.919C422.918 36.503 425.789 35.795 429.487 35.795C433.656 35.795 437.412 36.975 440.756 39.335L438.101 44.409C436.449 43.5043 434.954 42.875 433.617 42.521C432.279 42.1277 430.883 41.931 429.428 41.931C428.13 41.931 427.166 42.108 426.537 42.462C425.907 42.7767 425.593 43.2487 425.593 43.878C425.593 44.3893 425.75 44.822 426.065 45.176C426.419 45.4907 427.009 45.825 427.835 46.179C428.661 46.533 429.919 46.9657 431.611 47.477C434.285 48.303 436.37 49.1487 437.865 50.014C439.399 50.8793 440.52 51.902 441.228 53.082C441.936 54.262 442.29 55.737 442.29 57.507C442.29 59.9457 441.267 61.9123 439.222 63.407C437.176 64.8623 434.364 65.59 430.785 65.59Z" fill="#101010"/>
</g>
<defs>
<filter id="filter0_d_8_2" x="2.06494" y="16.694" width="444.225" height="48.955" filterUnits="userSpaceOnUse" color-interpolation-filters="sRGB">
<feFlood flood-opacity="0" result="BackgroundImageFix"/>
<feColorMatrix in="SourceAlpha" type="matrix" values="0 0 0 0 0 0 0 0 0 0 0 0 0 0 0 0 0 0 127 0" result="hardAlpha"/>
<feOffset dx="2" dy="-3"/>
<feGaussianBlur stdDeviation="1"/>
<feComposite in2="hardAlpha" operator="out"/>
<feColorMatrix type="matrix" values="0 0 0 0 1 0 0 0 0 0.819608 0 0 0 0 1 0 0 0 1 0"/>
<feBlend mode="normal" in2="BackgroundImageFix" result="effect1_dropShadow_8_2"/>
<feBlend mode="normal" in="SourceGraphic" in2="effect1_dropShadow_8_2" result="shape"/>
</filter>
</defs>
</svg>
